<svg width="19" height="20" viewBox="0 0 19 20" fill="none" xmlns="http://www.w3.org/2000/svg">
<path d="M5.99468 11.7645C5.99468 11.4525 5.87158 11.1532 5.65245 10.9326C5.43333 10.7119 5.13613 10.588 4.82624 10.588H1.3922C1.12759 10.64 0.853259 10.5982 0.615725 10.4698C0.378191 10.3414 0.19207 10.1342 0.0889127 9.88341C-0.0142442 9.6326 -0.0280877 9.35359 0.0497288 9.09368C0.127545 8.83377 0.292233 8.60895 0.515873 8.45734L8.50332 0.415946C8.63428 0.284075 8.78975 0.179469 8.96087 0.108101C9.13198 0.0367326 9.31537 0 9.50058 0C9.68579 0 9.86919 0.0367326 10.0403 0.108101C10.2114 0.179469 10.3669 0.284075 10.4978 0.415946L18.4841 8.45734C18.7078 8.60895 18.8725 8.83377 18.9503 9.09368C19.0281 9.35359 19.0142 9.6326 18.9111 9.88341C18.8079 10.1342 18.6218 10.3414 18.3843 10.4698C18.1467 10.5982 17.8724 10.64 17.6078 10.588H14.1738C13.8639 10.588 13.5667 10.7119 13.3475 10.9326C13.1284 11.1532 13.0053 11.4525 13.0053 11.7645V18.8235C13.0053 19.1355 12.8822 19.4348 12.6631 19.6554C12.444 19.876 12.1468 20 11.8369 20H7.16312C6.85323 20 6.55604 19.876 6.33691 19.6554C6.11779 19.4348 5.99468 19.1355 5.99468 18.8235V11.7645Z" fill="#C9C900"/>
</svg>
