<svg width="25" height="25" viewBox="0 0 25 25" fill="none" xmlns="http://www.w3.org/2000/svg">
<path d="M7.74965 12.2497H16.7497M12.2497 7.74966V16.7497M2.11565 17.1344C2.28107 17.5517 2.3179 18.0089 2.2214 18.4473L1.02328 22.1485C0.984672 22.3362 0.994654 22.5307 1.05228 22.7134C1.1099 22.8962 1.21325 23.0612 1.35253 23.1928C1.49181 23.3245 1.6624 23.4183 1.84813 23.4655C2.03385 23.5127 2.22856 23.5117 2.41378 23.4625L6.2534 22.3398C6.66708 22.2577 7.0955 22.2936 7.48978 22.4433C9.89209 23.5652 12.6134 23.8025 15.1737 23.1135C17.734 22.4244 19.9686 20.8533 21.4833 18.6772C22.998 16.5011 23.6955 13.86 23.4527 11.2198C23.2099 8.57956 22.0424 6.10993 20.1562 4.24663C18.27 2.38332 15.7863 1.24607 13.1433 1.03554C10.5003 0.825005 7.86793 1.55471 5.71053 3.09591C3.55312 4.63711 2.00938 6.89076 1.35166 9.45925C0.69394 12.0277 0.964518 14.746 2.11565 17.1344Z" stroke="#9E9E9E" stroke-width="2" stroke-linecap="round" stroke-linejoin="round"/>
</svg>
