<svg width="19" height="20" viewBox="0 0 19 20" fill="none" xmlns="http://www.w3.org/2000/svg">
<path d="M13.0053 8.23552C13.0053 8.54754 13.1284 8.84679 13.3475 9.06743C13.5667 9.28806 13.8639 9.41202 14.1738 9.41202L17.6078 9.41202C17.8724 9.36003 18.1467 9.40178 18.3843 9.5302C18.6218 9.65861 18.8079 9.86578 18.9111 10.1166C19.0142 10.3674 19.0281 10.6464 18.9503 10.9063C18.8725 11.1662 18.7078 11.3911 18.4841 11.5427L10.4967 19.5841C10.3657 19.7159 10.2102 19.8205 10.0391 19.8919C9.86802 19.9633 9.68463 20 9.49942 20C9.31421 20 9.13081 19.9633 8.9597 19.8919C8.78859 19.8205 8.63311 19.7159 8.50215 19.5841L0.515876 11.5427C0.292235 11.391 0.127547 11.1662 0.0497292 10.9063C-0.0280868 10.6464 -0.0142432 10.3674 0.0889138 10.1166C0.192071 9.86578 0.378192 9.65861 0.615725 9.53019C0.853259 9.40178 1.12759 9.36003 1.3922 9.41202L4.82625 9.41202C5.13613 9.41202 5.43333 9.28806 5.65246 9.06743C5.87158 8.84679 5.99468 8.54754 5.99468 8.23551L5.99468 1.1765C5.99468 0.864474 6.11779 0.565224 6.33691 0.344588C6.55604 0.123952 6.85323 -1.0619e-06 7.16312 -1.03481e-06L11.8369 -6.2622e-07C12.1468 -5.99129e-07 12.444 0.123952 12.6631 0.344589C12.8822 0.565225 13.0053 0.864475 13.0053 1.1765L13.0053 8.23552Z" fill="#C90A00"/>
</svg>
