<svg width="21" height="18" viewBox="0 0 21 18" fill="none" xmlns="http://www.w3.org/2000/svg">
<path d="M19.8546 8.73244H14.1982L12.3128 11.6321H8.54185L6.65639 8.73244H1M19.8546 8.73244V14.5318C19.8546 15.0445 19.656 15.5362 19.3024 15.8987C18.9488 16.2612 18.4692 16.4649 17.9692 16.4649H2.88546C2.38541 16.4649 1.90583 16.2612 1.55224 15.8987C1.19865 15.5362 1 15.0445 1 14.5318V8.73244M19.8546 8.73244L16.6022 2.07288C16.4461 1.75081 16.2055 1.47977 15.9074 1.29024C15.6093 1.1007 15.2655 1.00019 14.9147 1H5.93991C5.58914 1.00019 5.24537 1.1007 4.94726 1.29024C4.64915 1.47977 4.40852 1.75081 4.25242 2.07288L1 8.73244" stroke="white" stroke-width="2" stroke-linecap="round" stroke-linejoin="round"/>
</svg>
