<svg width="31" height="10" viewBox="0 0 31 10" fill="none" xmlns="http://www.w3.org/2000/svg">
<path d="M3.62653 0.658327C2.79305 0.664362 1.9954 1.13591 1.40907 1.96924C0.822738 2.80257 0.495752 3.92942 0.500042 5.10189C0.504332 6.27436 0.839548 7.39641 1.43195 8.22121C2.02434 9.046 2.8254 9.50598 3.65889 9.49994L24.7033 9.34053C25.0688 9.33857 25.4284 9.21023 25.7504 8.9668L30.2099 5.57242C30.2982 5.50452 30.3718 5.40427 30.4229 5.28229C30.474 5.16031 30.5006 5.02116 30.5 4.87961C30.4994 4.73805 30.4715 4.59937 30.4194 4.47827C30.3673 4.35718 30.2929 4.25818 30.204 4.1918L25.7192 0.861539C25.3963 0.622265 25.0366 0.498129 24.6717 0.500021L3.62653 0.658327Z" stroke="white" stroke-linecap="round" stroke-linejoin="round"/>
</svg>
