<svg width="149" height="50" viewBox="0 0 149 50" fill="none" xmlns="http://www.w3.org/2000/svg">
<path d="M10.9233 38.3598V5.66137H0V1.32275H27.1764V5.66137H16.2003V38.3598H10.9233Z" fill="white"/>
<path d="M35.3252 38.9947C32.7923 38.9947 30.5408 38.4127 28.5707 37.2487C26.6006 36.0847 25.0527 34.4621 23.927 32.381C22.8364 30.2998 22.2911 27.8836 22.2911 25.1323C22.2911 22.3104 22.8364 19.8589 23.927 17.7778C25.0527 15.6614 26.6006 14.0212 28.5707 12.8571C30.5408 11.6578 32.8275 11.0582 35.4308 11.0582C38.0341 11.0582 40.268 11.6402 42.1325 12.8042C43.9971 13.9683 45.4394 15.5203 46.4597 17.4603C47.4799 19.3651 47.99 21.4815 47.99 23.8095C47.99 24.1623 47.9724 24.5503 47.9372 24.9735C47.9372 25.3616 47.9196 25.8025 47.8844 26.2963H26.1433V22.5397H42.713C42.6075 20.3175 41.8687 18.5891 40.4967 17.3545C39.1247 16.0847 37.4184 15.4497 35.378 15.4497C33.9356 15.4497 32.6164 15.7848 31.4203 16.455C30.2242 17.0899 29.2567 18.0423 28.5179 19.3122C27.8143 20.5467 27.4625 22.1164 27.4625 24.0212V25.5026C27.4625 27.478 27.8143 29.1534 28.5179 30.5291C29.2567 31.8695 30.2242 32.8924 31.4203 33.5979C32.6164 34.2681 33.918 34.6032 35.3252 34.6032C37.0139 34.6032 38.4035 34.2328 39.4941 33.4921C40.5846 32.7513 41.3938 31.746 41.9215 30.4762H47.1984C46.7411 32.0988 45.9671 33.5626 44.8766 34.8677C43.786 36.1376 42.4316 37.1429 40.8133 37.8836C39.2302 38.6243 37.4009 38.9947 35.3252 38.9947Z" fill="white"/>
<path d="M44.5653 50V45.5026H46.6761C47.9426 45.5026 48.8397 45.2381 49.3674 44.709C49.8951 44.1799 50.1589 43.2981 50.1589 42.0635V11.6931H55.4359V42.1693C55.4359 44.0035 55.1193 45.5026 54.486 46.6667C53.888 47.8307 52.9909 48.6772 51.7948 49.2063C50.5987 49.7354 49.1563 50 47.4676 50H44.5653ZM52.8502 6.66667C51.8299 6.66667 50.9856 6.3492 50.3172 5.71428C49.684 5.07936 49.3674 4.26808 49.3674 3.28042C49.3674 2.32804 49.684 1.55203 50.3172 0.952381C50.9856 0.31746 51.8299 0 52.8502 0C53.8352 0 54.6443 0.31746 55.2776 0.952381C55.946 1.55203 56.2802 2.32804 56.2802 3.28042C56.2802 4.26808 55.946 5.07936 55.2776 5.71428C54.6443 6.3492 53.8352 6.66667 52.8502 6.66667Z" fill="white"/>
<path d="M58.969 38.3598V1.32275H65.1958L77.7023 26.3492L90.1559 1.32275H96.4355V38.3598H91.1586V10.582L79.7075 33.1746H75.6442L64.246 10.6349V38.3598H58.969Z" fill="white"/>
<path d="M108.439 38.9947C106.258 38.9947 104.446 38.6243 103.004 37.8836C101.561 37.1429 100.488 36.1552 99.7848 34.9206C99.0812 33.6508 98.7294 32.2928 98.7294 30.8466C98.7294 29.0829 99.1867 27.5838 100.101 26.3492C101.016 25.0794 102.318 24.1093 104.006 23.4392C105.695 22.769 107.718 22.4339 110.075 22.4339H116.988C116.988 20.8818 116.759 19.5944 116.302 18.5714C115.844 17.5485 115.158 16.7901 114.244 16.2963C113.364 15.7672 112.238 15.5026 110.866 15.5026C109.283 15.5026 107.929 15.8907 106.803 16.6667C105.677 17.4074 104.974 18.5185 104.692 20H99.4154C99.6264 18.1305 100.26 16.5432 101.315 15.2381C102.406 13.8977 103.795 12.8748 105.484 12.1693C107.173 11.4286 108.967 11.0582 110.866 11.0582C113.364 11.0582 115.457 11.4991 117.146 12.3809C118.835 13.2628 120.101 14.515 120.945 16.1376C121.825 17.7249 122.265 19.6296 122.265 21.8519V38.3598H117.674L117.252 33.8624C116.865 34.5679 116.407 35.2381 115.88 35.873C115.352 36.5079 114.719 37.0547 113.98 37.5132C113.276 37.9718 112.45 38.3245 111.5 38.5714C110.585 38.8536 109.565 38.9947 108.439 38.9947ZM109.442 34.709C110.567 34.709 111.588 34.4797 112.502 34.0212C113.417 33.5626 114.191 32.9453 114.824 32.1693C115.493 31.358 115.985 30.4586 116.302 29.4709C116.653 28.448 116.847 27.4074 116.882 26.3492V26.1905H110.603C109.09 26.1905 107.859 26.3845 106.909 26.7725C105.994 27.1252 105.326 27.619 104.903 28.254C104.481 28.8889 104.27 29.6296 104.27 30.4762C104.27 31.358 104.464 32.1164 104.851 32.7513C105.273 33.351 105.871 33.8272 106.645 34.1799C107.419 34.5326 108.351 34.709 109.442 34.709Z" fill="white"/>
<path d="M124.779 38.3598V11.6931H129.528L129.845 16.2434C130.689 14.6561 131.885 13.4039 133.433 12.4868C134.981 11.5344 136.757 11.0582 138.763 11.0582C140.873 11.0582 142.685 11.4815 144.198 12.328C145.711 13.1746 146.889 14.4621 147.734 16.1905C148.578 17.8836 149 20.0176 149 22.5926V38.3598H143.723V23.1217C143.723 20.6526 143.178 18.7831 142.087 17.5132C140.997 16.2434 139.413 15.6085 137.338 15.6085C135.966 15.6085 134.735 15.9436 133.644 16.6138C132.553 17.2487 131.674 18.2011 131.005 19.4709C130.372 20.7407 130.056 22.2928 130.056 24.127V38.3598H124.779Z" fill="white"/>
</svg>
